<svg xmlns="http://www.w3.org/2000/svg" viewBox="0 0 512 512" fill="#047857">
  <path d="M288 130.54V112h16c8.84 0 16-7.16 16-16s-7.16-16-16-16h-16V64c0-8.84-7.16-16-16-16s-16 7.16-16 16v16h-16c-8.84 0-16 7.16-16 16s7.16 16 16 16h16v18.54C174.55 132.17 96 214.05 96 320c0 106.04 85.96 192 192 192s192-85.96 192-192c0-105.95-78.55-187.83-192-189.46zm0 317.72V416h32c5.2 0 10.06-2.54 13.06-6.78S339.08 399 336.9 394.24c-10.5-22.61-35.33-68.91-35.33-86.24 0-8.84-7.16-16-16-16s-16 7.16-16 16c0 17.33-24.83 63.63-35.33 86.24-2.18 4.76-1.09 10.31 1.91 14.55s7.87 6.78 13.06 6.78h32v32.26c-57.97-4.39-104.04-50.46-108.43-108.43H208c5.2 0 10.06-2.54 13.06-6.78s4.09-9.79 1.91-14.55c-10.5-22.61-35.33-68.91-35.33-86.24 0-8.84-7.16-16-16-16s-16 7.16-16 16c0 17.33-24.83 63.63-35.33 86.24-2.18 4.76-1.09 10.31 1.91 14.55s7.87 6.78 13.06 6.78h32.26c4.39-57.97 50.46-104.04 108.43-108.43V224h-32c-5.2 0-10.06 2.54-13.06 6.78s-4.09 9.79-1.91 14.55c10.5 22.61 35.33 68.91 35.33 86.24 0 8.84 7.16 16 16 16s16-7.16 16-16c0-17.33 24.83-63.63 35.33-86.24 2.18-4.76 1.09-10.31-1.91-14.55s-7.87-6.78-13.06-6.78h-32v-32.26c57.97 4.39 104.04 50.46 108.43 108.43H304c-5.2 0-10.06 2.54-13.06 6.78s-4.09 9.79-1.91 14.55c10.5 22.61 35.33 68.91 35.33 86.24 0 8.84 7.16 16 16 16s16-7.16 16-16c0-17.33 24.83-63.63 35.33-86.24 2.18-4.76 1.09-10.31-1.91-14.55s-7.87-6.78-13.06-6.78h-32.26c-4.39 57.97-50.46 104.04-108.43 108.43z"/>
</svg>

